<?xml version="1.0" encoding="utf-8"?>


<svg viewBox="0 0 500 500" xmlns="http://www.w3.org/2000/svg">
  <!-- Blue triangle part -->
  <path fill="#3aa9e2" d="M249.039 85.483C249.039 85.483 249.04 249.31 249.04 249.312C249.04 249.312 128.5 167.34 128.503 167.396C128.5 167.34 249.039 85.483 249.039 85.483Z"/>
  
  <!-- Light blue triangle part -->
  <path fill="#2d99d4" d="M249.039 249.312C249.039 249.312 248.55 85.411 249.039 85.483C249.039 85.483 369.438 167.34 369.438 167.34C369.438 167.34 249.039 249.419 249.039 249.312Z"/>
  
  <!-- Dark gray triangle part -->
  <path fill="#535b77" d="M369.438 167.34C369.438 167.34 489.891 249.312 489.891 249.312L369.429 330.871C369.429 330.894 369.438 167.34 369.438 167.34Z"/>
  
  <!-- Dark blue triangle part -->
  <path fill="#5f69a2" d="M128.503 167.396L128.502 330.923C128.502 330.923 8.023 249.323 8.008 249.312L128.503 167.396Z"/>
  
  <!-- Red part -->
  <path fill="#de4632" d="M249.039 249.314C249.04 249.329 369.475 330.944 369.429 330.871C369.494 330.904 249.039 412.58 249.039 412.58C249.039 412.58 249.039 249.308 249.039 249.314Z"/>
  
  <!-- Orange part -->
  <path fill="#ed6e2f" d="M249.039 249.314C249.039 249.314 128.502 330.923 128.502 330.923L249.039 412.58L249.039 249.314Z"/>
  
  <!-- Yellow part with shadow -->
  <path fill="#f09d30" d="M489.891 249.312C489.891 249.312 489.268 354.36 489.285 406.211C489.299 419.854 486.695 431.915 481.469 442.391C471.985 461.407 454.207 477.167 433.31 484.857C415.833 491.29 396.994 491.768 376.786 486.284C370.304 484.529 358.023 477.894 339.946 466.379C309.492 447.013 249.039 412.58 249.039 412.58L489.891 249.312Z"/>
  
  <!-- Red part with shadow -->
  <path fill="#de4632" d="M8.045 391.456C7.963 343.754 8.04 249.312 8.04 249.312C8.04 249.312 249.039 412.58 249.039 412.58C249.039 412.58 152.974 468.757 134.549 479.582C121.848 487.036 107.046 490.517 90.147 490.022C76.427 489.615 62.375 485.309 47.988 477.1C29.196 466.396 16.797 450.054 10.787 428.077C7.663 416.712 8.069 403.723 8.045 391.456Z"/>
  
  <!-- Dark blue triangle part (corrected) -->
  <path fill="#5f69a2" d="M489.496 106.586C489.715 154.585 489.891 249.313 489.891 249.313C489.891 249.313 249.038 85.482 249.038 85.482C249.038 85.482 345.664 29.216 363.889 18.272C376.453 10.735 391.11 7.189 407.856 7.639C421.452 8.008 435.389 12.302 449.669 20.521C468.32 31.238 480.653 47.646 486.673 69.743C489.802 81.17 489.437 94.242 489.496 106.586Z"/>
 <!-- Green Part where we need to work as its poins are not touching and are not fine -->
<path fill="#269a74" d="M 249.625 7.784 C 249.625 7.784 248.544 113.328 248.561 165.179 C 248.575 178.822 245.971 190.883 240.745 201.359 C 231.261 220.375 213.483 236.135 192.586 243.825 C 175.109 250.258 156.27 250.736 136.062 245.252 C 129.58 243.497 117.299 236.862 99.222 225.347 C 68.768 205.981 8.284 171.154 8.284 171.154 L 249.625 7.784 Z"  transform="translate(128.955, 128.41) matrix(-0.999998927116, 0.001389000216, -0.001389000216, -0.999998927116, -4.70945e-7, -0.000004637832) translate(-128.955, -128.41)" />

</svg>




